<?xml version="1.0" encoding="UTF-8" standalone="no"?>
<!-- Created with Inkscape (http://www.inkscape.org/) -->

<svg
   width="36"
   height="36"
   viewBox="0 0 36 36.000001"
   version="1.1"
   id="svg5"
   inkscape:version="1.2.1 (8a69933317, 2022-10-28, custom)"
   sodipodi:docname="trybe-logo2.svg"
   xml:space="preserve"
   xmlns:inkscape="http://www.inkscape.org/namespaces/inkscape"
   xmlns:sodipodi="http://sodipodi.sourceforge.net/DTD/sodipodi-0.dtd"
   xmlns="http://www.w3.org/2000/svg"
   xmlns:svg="http://www.w3.org/2000/svg"><sodipodi:namedview
     id="namedview7"
     pagecolor="#ffffff"
     bordercolor="#000000"
     borderopacity="0.25"
     inkscape:showpageshadow="false"
     inkscape:pageopacity="0"
     inkscape:pagecheckerboard="0"
     inkscape:deskcolor="#d1d1d1"
     inkscape:document-units="px"
     showgrid="false"
     inkscape:zoom="8"
     inkscape:cx="15"
     inkscape:cy="20.4375"
     inkscape:window-width="1314"
     inkscape:window-height="704"
     inkscape:window-x="0"
     inkscape:window-y="0"
     inkscape:window-maximized="1"
     inkscape:current-layer="layer1"
     borderlayer="false"
     showborder="false" /><defs
     id="defs2" /><g
     inkscape:label="Camada 1"
     inkscape:groupmode="layer"
     id="layer1"><rect
       style="opacity:1;fill:#000000;fill-opacity:1;stroke-width:1.40152"
       id="rect1734"
       width="36"
       height="36"
       x="0"
       y="0"
       rx="8" /><g
       id="g1739"
       transform="translate(1.5302187,-0.98798758)"><path
         id="rect928"
         style="opacity:1;fill:#2fc18c;fill-opacity:1;stroke-width:0.671681"
         d="m 25.587891,10.867188 c -0.16553,0 -0.322893,0.03524 -0.464844,0.09766 -0.170527,0.04034 -0.346048,0.159967 -0.455078,0.347656 l -0.03516,0.06055 c -0.02495,0.03699 -0.04582,0.07533 -0.06641,0.115234 l -3.865234,6.652344 c -0.26176,0.450604 -0.26176,1.176349 0,1.626953 l 3.740234,6.433594 c 0.03556,0.604779 0.532476,1.082031 1.146485,1.082031 0.63725,0 1.15039,-0.51314 1.15039,-1.150391 V 12.015625 c 0,-0.63725 -0.51314,-1.148437 -1.15039,-1.148437 z" /><path
         id="rect928-6"
         style="fill:#2fc18c;fill-opacity:1;stroke-width:0.671681"
         d="m 6.5093495,16.239902 c 0.084108,0.142569 0.1944187,0.260198 0.320308,0.350742 0.1213921,0.126376 0.3136097,0.216765 0.5306643,0.215304 l 0.070019,-5.2e-4 c 0.044542,0.0027 0.088163,0.0011 0.1329939,-0.0014 l 7.6935753,-0.05108 c 0.521105,-0.0035 1.146181,-0.37227 1.401277,-0.82668 L 20.298898,9.4358858 C 20.801718,9.0979977 20.960278,8.4275103 20.648291,7.8986711 20.324494,7.3498147 19.621798,7.1685874 19.07294,7.4923845 L 6.9139581,14.66555 c -0.5488564,0.323797 -0.7284018,1.025501 -0.404605,1.574358 z" /><path
         id="rect928-3"
         style="fill:#2fc18c;fill-opacity:1;stroke-width:0.671681"
         d="m 20.526249,30.073323 c 0.08364,-0.142845 0.13274,-0.296448 0.150598,-0.450485 0.05135,-0.167541 0.0368,-0.379453 -0.07008,-0.568376 l -0.03449,-0.06094 c -0.01932,-0.04022 -0.04186,-0.0776 -0.06588,-0.115533 l -3.787683,-6.696803 c -0.256591,-0.453568 -0.882879,-0.820269 -1.403992,-0.822061 l -7.4417705,-0.02308 c -0.5398664,-0.274894 -1.2027941,-0.08722 -1.5130382,0.442643 -0.3219871,0.54992 -0.1384458,1.252016 0.4114744,1.574004 l 12.1825453,7.133077 c 0.54992,0.321988 1.250331,0.137456 1.572318,-0.41246 z" /></g></g></svg>
